<svg xmlns="http://www.w3.org/2000/svg" viewBox="0 0 420 170" role="img" aria-label="bp"><rect width="420" height="170" fill="none"/><g transform="translate(82 85)"><g fill="#f7d600"><path d="M0-76 11-24 43-63 26-14 74-36 35-4 88 0 35 4 74 36 26 14 43 63 11 24 0 76-11 24-43 63-26 14-74 36-35 4-88 0-35-4-74-36-26-14-43-63-11-24z"/></g><g fill="#7ac142" transform="scale(.68)"><path d="M0-76 11-24 43-63 26-14 74-36 35-4 88 0 35 4 74 36 26 14 43 63 11 24 0 76-11 24-43 63-26 14-74 36-35 4-88 0-35-4-74-36-26-14-43-63-11-24z"/></g><circle r="28" fill="#009639"/><circle r="13" fill="#fff200"/></g><text x="190" y="111" font-family="Arial, Helvetica, sans-serif" font-size="82" font-weight="700" fill="#009639">bp</text></svg>