<svg xmlns="http://www.w3.org/2000/svg" viewBox="0 0 520 170" role="img" aria-label="SOCAR"><rect width="520" height="170" fill="none"/><g transform="translate(73 86)"><path d="M0-72 C27-42 50-18 32 25 C22 49 2 65-19 73 C-5 43-32 29-28-1 C-25-31-5-44 0-72z" fill="#00a3e0"/><path d="M39-53 C67-21 79 14 58 49 C47 68 29 77 9 81 C20 58 10 40 28 17 C42-2 42-23 39-53z" fill="#40b549"/><path d="M-38-46 C-15-25-4-5-14 21 C-23 45-44 55-66 58 C-52 36-60 17-48-6 C-39-23-40-35-38-46z" fill="#ef3340"/></g><text x="158" y="107" font-family="Arial, Helvetica, sans-serif" font-size="72" font-weight="900" fill="#111820">SOCAR</text></svg>